HIERARCHY
ROOT Hips
{
	OFFSET 0.000000 0.000000 0.000000
	CHANNELS 6 Xposition Yposition Zposition Zrotation Yrotation Xrotation 
	JOINT LHipJoint
	{
		OFFSET 0.000000 0.000000 0.000000
		CHANNELS 3 Zrotation Yrotation Xrotation
		JOINT LeftUpLeg
		{
			OFFSET 1.363060 -1.794630 0.839290
			CHANNELS 3 Zrotation Yrotation Xrotation
			JOINT LeftLeg
			{
				OFFSET 2.448110 -6.726130 0.000000
				CHANNELS 3 Zrotation Yrotation Xrotation
				JOINT LeftFoot
				{
					OFFSET 2.562200 -7.039590 0.000000
					CHANNELS 3 Zrotation Yrotation Xrotation
					JOINT LeftToeBase
					{
						OFFSET 0.157640 -0.433110 2.322550
						CHANNELS 3 Zrotation Yrotation Xrotation
						End Site
						{
							OFFSET 0.000000 0.000000 0.000000
						}
					}
				}
			}
		}
	}
	JOINT RHipJoint
	{
		OFFSET 0.000000 0.000000 0.000000
		CHANNELS 3 Zrotation Yrotation Xrotation
		JOINT RightUpLeg
		{
			OFFSET -1.305520 -1.794630 0.839290
			CHANNELS 3 Zrotation Yrotation Xrotation
			JOINT RightLeg
			{
				OFFSET -2.542530 -6.985550 0.000000
				CHANNELS 3 Zrotation Yrotation Xrotation
				JOINT RightFoot
				{
					OFFSET -2.568260 -7.056230 0.000000
					CHANNELS 3 Zrotation Yrotation Xrotation
					JOINT RightToeBase
					{
						OFFSET -0.164730 -0.452590 2.363150
						CHANNELS 3 Zrotation Yrotation Xrotation
						End Site
						{
							OFFSET 0.000000 0.000000 0.000000
						}
					}
				}
			}
		}
	}
}
MOTION
Frames: 19
Frame Time: 0.008333
22.950285 16.064759 2.211664 141.894389 -87.617683 -101.365146 -6.868147 -0.547037 3.192293 -10.628407 -13.518297 -71.022368 -1.713162 1.628023 40.431600 2.935764 9.567011 -14.179076 -0.490800 0.000000 -26.770800 12.055651 -1.769168 -1.062212 3.005157 3.066958 -16.873560 -0.301963 -2.131066 39.287963 -2.327347 -12.568195 4.005181 -2.773200 -0.000001 -55.047400
22.764413 15.932004 2.212683 138.267828 -87.609287 -97.858211 -6.750703 -0.626382 3.014983 -10.577852 -14.153144 -71.887633 -1.387663 1.929163 44.496309 3.145473 10.199554 -15.852152 -0.910000 -0.000000 -24.781000 12.243116 -1.654089 -1.203703 2.727901 2.823902 -17.618762 -0.385678 -2.326706 42.338930 -2.351728 -12.610923 2.626606 -2.472700 -0.000000 -54.213800
22.580820 15.802660 2.210814 134.217344 -87.543532 -93.972222 -6.617958 -0.686409 2.808453 -10.660613 -14.778217 -72.515317 -1.098162 2.189076 48.320869 3.364505 10.889106 -17.651005 -1.401201 0.000000 -23.127800 12.453863 -1.513163 -1.368759 2.393047 2.573093 -18.362770 -0.477447 -2.530898 45.413084 -2.352735 -12.530905 1.228063 -2.143300 0.000001 -53.355801
22.399048 15.678772 2.206679 130.154720 -87.419415 -90.112081 -6.482615 -0.724981 2.572984 -10.883404 -15.367237 -72.888007 -0.850926 2.412701 51.837031 3.589244 11.618020 -19.544195 -1.963700 -0.000000 -21.879100 12.675298 -1.350317 -1.555241 2.017930 2.331372 -19.112590 -0.577347 -2.743115 48.493695 -2.337246 -12.369530 -0.188587 -1.802700 0.000000 -52.462499
22.218519 15.562023 2.201083 126.403813 -87.244687 -86.590622 -6.357384 -0.743469 2.312942 -11.237861 -15.894614 -73.003310 -0.647871 2.605282 54.999634 3.814655 12.362730 -21.491094 -2.590400 0.000000 -21.067000 12.894788 -1.173291 -1.757126 1.625658 2.110559 -19.881285 -0.685017 -2.962174 51.559493 -2.312293 -12.168412 -1.613272 -1.465800 -0.000001 -51.521400
22.038717 15.453731 2.195049 123.137445 -87.036658 -83.571954 -6.251531 -0.746213 2.032529 -11.702307 -16.336245 -72.871818 -0.487743 2.771600 57.787318 4.034106 13.094436 -23.445142 -3.266800 -0.000000 -20.688400 13.102662 -0.989772 -1.969231 1.242878 1.915125 -20.684380 -0.799903 -3.187105 54.591555 -2.283995 -11.962799 -3.033845 -1.142500 0.000000 -50.510800
21.858590 15.354820 2.189587 120.400847 -86.815867 -81.090795 -6.172358 -0.737510 1.739380 -12.246125 -16.672559 -72.516463 -0.367589 2.915414 60.195800 4.240078 13.781101 -25.357304 -3.970200 -0.000001 -20.708400 13.291339 -0.807319 -2.184327 0.895647 1.744200 -21.539283 -0.921716 -3.415490 57.569829 -2.257577 -11.781926 -4.435275 -0.838600 0.000000 -49.415100
21.677346 15.265903 2.185675 118.152658 -86.601665 -79.095714 -6.125804 -0.721484 1.442426 -12.834671 -16.889626 -71.968744 -0.283641 3.039806 62.235059 4.424978 14.390849 -27.181091 -4.672300 -0.000000 -21.059600 13.454252 -0.631927 -2.395255 0.607109 1.592005 -22.463908 -1.050115 -3.643854 60.473992 -2.237111 -11.647027 -5.801681 -0.556200 0.000000 -48.224501
21.494637 15.187243 2.184153 116.308283 -86.411674 -77.492120 -6.115030 -0.701745 1.149271 -13.433693 -16.980615 -71.265822 -0.231700 3.147341 63.927970 4.582177 14.895504 -28.878304 -5.342600 -0.000000 -21.645200 13.587262 -0.466866 -2.597181 0.394515 1.448535 -23.472752 -1.184357 -3.868691 63.286311 -2.225316 -11.570367 -7.121292 -0.294100 -0.000000 -46.928000
21.309422 15.118900 2.185544 114.763745 -86.257249 -76.170088 -6.140838 -0.679752 0.868823 -14.015022 -16.946616 -70.445541 -0.207708 3.240153 65.304150 4.707090 15.274154 -30.421528 -5.952700 -0.000000 -22.355300 13.688422 -0.313545 -2.784665 0.267951 1.301058 -24.577757 -1.323317 -4.086121 65.989234 -2.223840 -11.556998 -8.385423 -0.049300 0.000001 -45.521200
21.121373 15.060840 2.190011 113.411889 -86.143345 -75.017865 -6.202728 -0.655404 0.610780 -14.557673 -16.795774 -69.544251 -0.207817 3.320047 66.396804 4.797765 15.515509 -31.795962 -6.480900 -0.000001 -23.084199 13.756876 -0.172424 -2.951870 0.229773 1.136734 -25.785541 -1.465251 -4.292254 68.564870 -2.233381 -11.605954 -9.588148 0.181800 -0.000001 -44.014900
20.930263 15.012937 2.197561 112.149852 -86.071446 -73.927948 -6.298073 -0.628924 0.379635 -15.046998 -16.540781 -68.592245 -0.228411 3.388405 67.239179 4.855057 15.620587 -32.999216 -6.914900 0.000000 -23.747900 13.792660 -0.041130 -3.097877 0.278435 0.944096 -27.097591 -1.607547 -4.484600 70.995812 -2.253760 -11.711024 -10.726741 0.402600 -0.000000 -42.431800
20.735691 14.975117 2.207830 110.879888 -86.036815 -72.801848 -6.422755 -0.598336 0.180899 -15.478372 -16.198175 -67.610534 -0.266539 3.445986 67.859732 4.882636 15.601536 -34.039527 -7.252700 -0.000000 -24.294700 13.797377 0.082437 -3.220172 0.405883 0.714031 -28.508885 -1.747163 -4.661029 73.264104 -2.284039 -11.861901 -11.800123 0.615800 -0.000001 -40.810100
20.538276 14.947437 2.220373 109.510811 -86.033502 -71.549511 -6.570935 -0.562999 0.012904 -15.851590 -15.784479 -66.610323 -0.319864 3.493078 68.280784 4.885965 15.479678 -34.933203 -7.501800 0.000001 -24.706400 13.772907 0.202684 -3.322222 0.602557 0.441326 -30.008711 -1.880459 -4.821290 75.352136 -2.322607 -12.044868 -12.809284 0.823000 0.000000 -39.196900
20.337703 14.930053 2.234402 107.965611 -86.049867 -70.101716 -6.736531 -0.519634 -0.122071 -16.175465 -15.317111 -65.589396 -0.387047 3.528914 68.514326 4.871880 15.281696 -35.700586 -7.676500 -0.000000 -24.996600 13.722285 0.321338 -3.402554 0.853422 0.123708 -31.580217 -2.003613 -4.964957 77.240766 -2.367131 -12.243066 -13.754861 1.024400 -0.000000 -37.644900
20.129318 14.919120 2.259957 97.303171 -86.055770 -59.376623 -7.102518 -0.497905 0.027659 -15.929367 -15.539752 -64.857147 -0.413928 3.558279 68.627230 4.822819 15.038133 -36.205057 -7.722400 0.000000 -25.503800 13.408114 0.438990 -3.643952 1.621557 -0.886297 -33.249386 -2.076422 -5.023538 78.829125 -2.430281 -12.493603 -14.682377 1.236000 -0.000000 -36.079900
19.924142 14.923230 2.275246 94.993260 -86.044030 -57.141913 -7.294988 -0.452038 -0.055420 -16.182453 -15.014974 -63.750576 -0.507695 3.565966 68.494721 4.792046 14.770157 -36.779136 -7.800100 0.000001 -25.689100 13.303004 0.548959 -3.695190 1.941821 -1.287687 -34.908633 -2.164009 -5.144697 80.267405 -2.477838 -12.661035 -15.505705 1.422800 -0.000000 -34.791099
19.717132 14.938709 2.290344 92.450919 -86.019947 -54.681154 -7.488008 -0.399843 -0.126691 -16.410691 -14.467042 -62.563052 -0.614576 3.555175 68.161964 4.759789 14.499389 -37.272431 -7.849300 -0.000000 -25.917500 13.178232 0.659717 -3.738881 2.279029 -1.715687 -36.566271 -2.229403 -5.254928 81.452594 -2.520922 -12.780705 -16.266004 1.595800 0.000000 -33.688900
19.508593 14.965852 2.304901 89.750757 -85.979650 -52.077381 -7.677969 -0.342965 -0.194050 -16.616497 -13.898852 -61.266376 -0.734635 3.522686 67.612965 4.727168 14.236966 -37.682861 -7.875900 -0.000000 -26.258600 13.035652 0.769613 -3.778663 2.624583 -2.157545 -38.194515 -2.268943 -5.355293 82.369326 -2.555446 -12.830756 -16.960471 1.750100 0.000000 -32.794000
